<svg width="15" height="14" viewBox="0 0 15 14" fill="none" xmlns="http://www.w3.org/2000/svg">
<path d="M9.7 0.100029C11.2 -0.399971 12.3 0.400029 12.9 1.20003C13.4 1.00003 14 0.800029 14.6 0.600029C14.6 1.40003 14.1 2.00003 13.8 2.20003C14.5 2.40003 15 1.80003 15 1.80003C14.9 2.70003 14.1 3.50003 13.6 3.70003C13.4 10 10.8 14.1 4.7 14C4.2 14 4.8 14 4.3 14C4 14 0.6 13.6 0 12.2C2 12.4 3.4 11.8 4.1 11.1C3.3 10.8 1.7 10.7 1.5 8.30003C1.8 8.50003 2 8.60003 2.6 8.50003C1.5 7.70003 0.3 7.00003 0.4 5.00003C0.7 5.30003 1.3 5.50003 1.6 5.40003C1 5.20003 -0.2 2.30003 0.8 0.800029C2.4 2.50003 4.1 4.20003 7.1 4.30003C7.3 2.20003 8.1 0.800029 9.7 0.100029Z" fill="#444444"/>
</svg>
